<mxfile host="app.diagrams.net" agent="Mozilla/5.0 (Windows NT 10.0; Win64; x64) AppleWebKit/537.36 (KHTML, like Gecko) Chrome/124.0.0.0 Safari/537.36" version="24.9.3">
  <diagram name="Page-1" id="90a13364-a465-7bf4-72fc-28e22215d7a0">
    <mxGraphModel dx="863" dy="458" grid="1" gridSize="10" guides="1" tooltips="1" connect="1" arrows="1" fold="1" page="1" pageScale="1.5" pageWidth="1169" pageHeight="826" background="none" math="0" shadow="0">
      <root>
        <mxCell id="0" style=";html=1;" />
        <mxCell id="1" style=";html=1;" parent="0" />
        <mxCell id="3a17f1ce550125da-13" style="edgeStyle=elbowEdgeStyle;rounded=0;html=1;startArrow=none;startFill=0;jettySize=auto;orthogonalLoop=1;fontSize=18;elbow=vertical;" parent="1" source="3a17f1ce550125da-2" target="3a17f1ce550125da-4" edge="1">
          <mxGeometry relative="1" as="geometry">
            <Array as="points">
              <mxPoint x="1000" y="474" />
            </Array>
          </mxGeometry>
        </mxCell>
        <mxCell id="3a17f1ce550125da-14" style="edgeStyle=elbowEdgeStyle;rounded=0;html=1;startArrow=none;startFill=0;jettySize=auto;orthogonalLoop=1;fontSize=18;elbow=vertical;" parent="1" source="3a17f1ce550125da-2" target="3a17f1ce550125da-5" edge="1">
          <mxGeometry relative="1" as="geometry" />
        </mxCell>
        <mxCell id="3a17f1ce550125da-15" style="edgeStyle=elbowEdgeStyle;rounded=0;html=1;startArrow=none;startFill=0;jettySize=auto;orthogonalLoop=1;fontSize=18;elbow=vertical;" parent="1" source="3a17f1ce550125da-2" target="3a17f1ce550125da-6" edge="1">
          <mxGeometry relative="1" as="geometry" />
        </mxCell>
        <mxCell id="3a17f1ce550125da-16" style="edgeStyle=elbowEdgeStyle;rounded=0;html=1;startArrow=none;startFill=0;jettySize=auto;orthogonalLoop=1;fontSize=18;elbow=vertical;" parent="1" source="3a17f1ce550125da-2" target="3a17f1ce550125da-7" edge="1">
          <mxGeometry relative="1" as="geometry" />
        </mxCell>
        <mxCell id="3a17f1ce550125da-17" style="edgeStyle=elbowEdgeStyle;rounded=0;html=1;startArrow=none;startFill=0;jettySize=auto;orthogonalLoop=1;fontSize=18;" parent="1" target="3a17f1ce550125da-2" edge="1">
          <mxGeometry relative="1" as="geometry">
            <Array as="points">
              <mxPoint x="907" y="754" />
            </Array>
            <mxPoint x="907" y="774" as="sourcePoint" />
          </mxGeometry>
        </mxCell>
        <mxCell id="3a17f1ce550125da-2" value="&lt;div&gt;Smart Cache&lt;/div&gt;&lt;div&gt;(Micro Service for search)&lt;/div&gt;" style="whiteSpace=wrap;html=1;shadow=1;fontSize=18;fillColor=#f5f5f5;strokeColor=#666666;" parent="1" vertex="1">
          <mxGeometry x="787" y="454" width="170" height="280" as="geometry" />
        </mxCell>
        <mxCell id="3a17f1ce550125da-4" value="R1" style="whiteSpace=wrap;html=1;shadow=1;fontSize=18;fillColor=#f5f5f5;strokeColor=#666666;" parent="1" vertex="1">
          <mxGeometry x="1037" y="444" width="120" height="60" as="geometry" />
        </mxCell>
        <mxCell id="3a17f1ce550125da-5" value="R2" style="whiteSpace=wrap;html=1;shadow=1;fontSize=18;fillColor=#f5f5f5;strokeColor=#666666;" parent="1" vertex="1">
          <mxGeometry x="1037" y="524" width="120" height="60" as="geometry" />
        </mxCell>
        <mxCell id="3a17f1ce550125da-6" value="R3" style="whiteSpace=wrap;html=1;shadow=1;fontSize=18;fillColor=#f5f5f5;strokeColor=#666666;" parent="1" vertex="1">
          <mxGeometry x="1037" y="604" width="120" height="60" as="geometry" />
        </mxCell>
        <mxCell id="3a17f1ce550125da-7" value="RN" style="whiteSpace=wrap;html=1;shadow=1;fontSize=18;fillColor=#f5f5f5;strokeColor=#666666;" parent="1" vertex="1">
          <mxGeometry x="1037" y="684" width="120" height="60" as="geometry" />
        </mxCell>
        <mxCell id="3a17f1ce550125da-20" style="edgeStyle=elbowEdgeStyle;rounded=0;html=1;startArrow=none;startFill=0;jettySize=auto;orthogonalLoop=1;fontSize=18;elbow=vertical;" parent="1" source="3a17f1ce550125da-8" target="3a17f1ce550125da-2" edge="1">
          <mxGeometry relative="1" as="geometry">
            <Array as="points">
              <mxPoint x="757" y="514" />
            </Array>
          </mxGeometry>
        </mxCell>
        <mxCell id="3a17f1ce550125da-8" value="API Gateway" style="whiteSpace=wrap;html=1;shadow=1;fontSize=18;fillColor=#f5f5f5;strokeColor=#666666;" parent="1" vertex="1">
          <mxGeometry x="597" y="444" width="120" height="150" as="geometry" />
        </mxCell>
        <mxCell id="4UoYWbGlwxpfovrO7t7e-3" value="" style="rounded=0;orthogonalLoop=1;jettySize=auto;html=1;" edge="1" parent="1" target="4UoYWbGlwxpfovrO7t7e-1">
          <mxGeometry relative="1" as="geometry">
            <mxPoint x="944.5" y="834" as="sourcePoint" />
          </mxGeometry>
        </mxCell>
        <mxCell id="3a17f1ce550125da-22" style="edgeStyle=elbowEdgeStyle;rounded=0;html=1;startArrow=none;startFill=0;jettySize=auto;orthogonalLoop=1;fontSize=18;" parent="1" target="3a17f1ce550125da-2" edge="1">
          <mxGeometry relative="1" as="geometry">
            <mxPoint x="927" y="774" as="sourcePoint" />
            <mxPoint x="937" y="744" as="targetPoint" />
            <Array as="points">
              <mxPoint x="927" y="754" />
              <mxPoint x="907" y="754" />
            </Array>
          </mxGeometry>
        </mxCell>
        <mxCell id="3a17f1ce550125da-23" style="edgeStyle=elbowEdgeStyle;rounded=0;html=1;startArrow=none;startFill=0;jettySize=auto;orthogonalLoop=1;fontSize=18;" parent="1" edge="1">
          <mxGeometry relative="1" as="geometry">
            <mxPoint x="887" y="774" as="sourcePoint" />
            <mxPoint x="887" y="734" as="targetPoint" />
            <Array as="points">
              <mxPoint x="887" y="754" />
              <mxPoint x="887" y="754" />
            </Array>
          </mxGeometry>
        </mxCell>
        <mxCell id="3a17f1ce550125da-24" style="edgeStyle=elbowEdgeStyle;rounded=0;html=1;startArrow=none;startFill=0;jettySize=auto;orthogonalLoop=1;fontSize=18;" parent="1" edge="1">
          <mxGeometry relative="1" as="geometry">
            <mxPoint x="857" y="734" as="sourcePoint" />
            <mxPoint x="857" y="774" as="targetPoint" />
            <Array as="points">
              <mxPoint x="857" y="754" />
              <mxPoint x="887" y="764" />
            </Array>
          </mxGeometry>
        </mxCell>
        <mxCell id="3a17f1ce550125da-25" style="edgeStyle=elbowEdgeStyle;rounded=0;html=1;startArrow=none;startFill=0;jettySize=auto;orthogonalLoop=1;fontSize=18;" parent="1" edge="1">
          <mxGeometry relative="1" as="geometry">
            <mxPoint x="837" y="734" as="sourcePoint" />
            <mxPoint x="837" y="774" as="targetPoint" />
            <Array as="points">
              <mxPoint x="837" y="754" />
              <mxPoint x="867" y="764" />
            </Array>
          </mxGeometry>
        </mxCell>
        <mxCell id="3a17f1ce550125da-26" style="edgeStyle=elbowEdgeStyle;rounded=0;html=1;startArrow=none;startFill=0;jettySize=auto;orthogonalLoop=1;fontSize=18;" parent="1" edge="1">
          <mxGeometry relative="1" as="geometry">
            <mxPoint x="817" y="734" as="sourcePoint" />
            <mxPoint x="817" y="774" as="targetPoint" />
            <Array as="points">
              <mxPoint x="817" y="754" />
              <mxPoint x="847" y="764" />
            </Array>
          </mxGeometry>
        </mxCell>
        <mxCell id="4UoYWbGlwxpfovrO7t7e-12" value="" style="edgeStyle=orthogonalEdgeStyle;rounded=0;orthogonalLoop=1;jettySize=auto;html=1;" edge="1" parent="1" source="4UoYWbGlwxpfovrO7t7e-1" target="3a17f1ce550125da-7">
          <mxGeometry relative="1" as="geometry" />
        </mxCell>
        <mxCell id="4UoYWbGlwxpfovrO7t7e-1" value="&lt;div&gt;Visionary Cache (Batch job)&lt;/div&gt;" style="whiteSpace=wrap;html=1;shadow=1;fontSize=18;fillColor=#f5f5f5;strokeColor=#666666;" vertex="1" parent="1">
          <mxGeometry x="981" y="777" width="170" height="114" as="geometry" />
        </mxCell>
        <mxCell id="4UoYWbGlwxpfovrO7t7e-4" style="edgeStyle=elbowEdgeStyle;rounded=0;html=1;startArrow=none;startFill=0;jettySize=auto;orthogonalLoop=1;fontSize=18;entryX=1.007;entryY=0.3;entryDx=0;entryDy=0;entryPerimeter=0;" edge="1" parent="1">
          <mxGeometry relative="1" as="geometry">
            <mxPoint x="980" y="810" as="sourcePoint" />
            <mxPoint x="945.5150000000001" y="810" as="targetPoint" />
            <Array as="points">
              <mxPoint x="970" y="800" />
              <mxPoint x="917" y="764" />
            </Array>
          </mxGeometry>
        </mxCell>
        <mxCell id="4UoYWbGlwxpfovrO7t7e-6" value="Cassandra" style="shape=cylinder3;whiteSpace=wrap;html=1;boundedLbl=1;backgroundOutline=1;size=15;" vertex="1" parent="1">
          <mxGeometry x="790" y="770" width="157" height="103" as="geometry" />
        </mxCell>
        <mxCell id="4UoYWbGlwxpfovrO7t7e-8" value="" style="edgeStyle=orthogonalEdgeStyle;rounded=0;orthogonalLoop=1;jettySize=auto;html=1;" edge="1" parent="1">
          <mxGeometry relative="1" as="geometry">
            <mxPoint x="1050" y="891" as="sourcePoint" />
            <mxPoint x="1050.0689655172414" y="920" as="targetPoint" />
          </mxGeometry>
        </mxCell>
        <mxCell id="4UoYWbGlwxpfovrO7t7e-7" value="MySQL (Configuration)" style="shape=cylinder3;whiteSpace=wrap;html=1;boundedLbl=1;backgroundOutline=1;size=15;" vertex="1" parent="1">
          <mxGeometry x="1020.25" y="920" width="91.5" height="80" as="geometry" />
        </mxCell>
        <mxCell id="4UoYWbGlwxpfovrO7t7e-9" value="" style="edgeStyle=orthogonalEdgeStyle;rounded=0;orthogonalLoop=1;jettySize=auto;html=1;" edge="1" parent="1">
          <mxGeometry relative="1" as="geometry">
            <mxPoint x="1079" y="919" as="sourcePoint" />
            <mxPoint x="1079" y="890" as="targetPoint" />
          </mxGeometry>
        </mxCell>
        <mxCell id="4UoYWbGlwxpfovrO7t7e-13" value="" style="edgeStyle=orthogonalEdgeStyle;rounded=0;orthogonalLoop=1;jettySize=auto;html=1;entryX=0;entryY=0.5;entryDx=0;entryDy=0;exitX=0.25;exitY=0;exitDx=0;exitDy=0;" edge="1" parent="1" source="4UoYWbGlwxpfovrO7t7e-1" target="3a17f1ce550125da-6">
          <mxGeometry relative="1" as="geometry">
            <mxPoint x="1076" y="787" as="sourcePoint" />
            <mxPoint x="1107" y="754" as="targetPoint" />
            <Array as="points">
              <mxPoint x="1017" y="777" />
              <mxPoint x="1017" y="634" />
            </Array>
          </mxGeometry>
        </mxCell>
        <mxCell id="4UoYWbGlwxpfovrO7t7e-14" value="" style="edgeStyle=orthogonalEdgeStyle;rounded=0;orthogonalLoop=1;jettySize=auto;html=1;entryX=0;entryY=0.5;entryDx=0;entryDy=0;exitX=0.126;exitY=-0.02;exitDx=0;exitDy=0;exitPerimeter=0;" edge="1" parent="1" source="4UoYWbGlwxpfovrO7t7e-1" target="3a17f1ce550125da-5">
          <mxGeometry relative="1" as="geometry">
            <mxPoint x="1034" y="787" as="sourcePoint" />
            <mxPoint x="1047" y="644" as="targetPoint" />
            <Array as="points">
              <mxPoint x="1000" y="775" />
              <mxPoint x="1000" y="554" />
            </Array>
          </mxGeometry>
        </mxCell>
        <mxCell id="4UoYWbGlwxpfovrO7t7e-15" value="" style="edgeStyle=orthogonalEdgeStyle;rounded=0;orthogonalLoop=1;jettySize=auto;html=1;entryX=0;entryY=0.5;entryDx=0;entryDy=0;exitX=0.25;exitY=0;exitDx=0;exitDy=0;" edge="1" parent="1" target="3a17f1ce550125da-4">
          <mxGeometry relative="1" as="geometry">
            <mxPoint x="1007" y="777" as="sourcePoint" />
            <mxPoint x="1013.04" y="479.03999999999996" as="targetPoint" />
            <Array as="points">
              <mxPoint x="1000" y="777" />
              <mxPoint x="1000" y="474" />
            </Array>
          </mxGeometry>
        </mxCell>
      </root>
    </mxGraphModel>
  </diagram>
</mxfile>
